<svg xmlns="http://www.w3.org/2000/svg" width="140" height="140" viewBox="0 0 1400 1400">
  <defs>
    <style>
      .cls-1 {
        fill: #ffffff;
        fill-rule: evenodd;
      }
    </style>
  </defs>
  <path id="mixtape_1" data-name="mixtape 1" class="cls-1" d="M229.313-2.826H1107c29.42,0,62.73-2.721,87.87,2.995,44.66,10.154,79.69,26.648,110.83,49.913,45.67,34.111,76.14,86.619,90.87,151.735,5.09,22.536,2.99,51.333,2.99,77.864v838.54c0,24.71,1.76,51-2.99,71.87-14.19,62.35-42.68,114.42-85.87,147.74-32.52,25.09-68.43,43.18-115.83,53.91-26.52,6-61.96,2.99-92.86,2.99H295.215c-29.717,0-63.458,2.78-88.867-2.99-83.088-18.89-147.659-65.34-179.732-134.77C15.5,1232.91,8.379,1207,2.652,1177.11q-0.5-102.81-1-205.638V427.422C1.65,324.863-9.785,199.4,27.615,132.937c30.776-54.693,73.667-96.547,134.8-120.789L206.348,0.169ZM674.647,146.912l-59.91,5.99c-37.57,8.241-73.961,14.771-106.84,27.951C347.3,245.23,244.367,355.916,180.386,517.265c-12.918,32.58-17.2,69.429-24.962,106.814-14.864,71.606.548,169.845,17.973,224.607,53.416,167.874,156.226,284.794,310.535,351.384,36.19,15.62,75.71,26.7,118.823,36.94q21.965,2.49,43.934,4.99c18.314,3.46,58.2,7.15,79.881,2.99L772.5,1241c35.491-7.39,69.06-12.68,100.849-22.96,153.37-49.61,269.7-160.95,331.5-302.471,16.36-37.443,26.55-78.007,36.95-121.787,25.83-108.725-3.91-238.425-36.95-314.45C1121.85,288.34,949.8,146.708,674.647,146.912ZM482.934,311.625c47.04-1.284,75.9,21.983,106.84,37.933,48.329,24.916,94.737,49.856,137.794,79.861,14.818,10.326,56.937,32.977,47.928,63.888-7.711,26.458-41.787,39-62.906,52.908-36.322,23.913-74.205,48.333-111.832,70.876L571.8,630.068c-23.05,14-43.562,28.385-74.888,34.939-9.018,1.887-17.379-1.312-21.967-3.993-29.47-17.224-16.9-44.385-23.964-82.855-8.4-45.719-2.991-103.333-3-153.732,0-29.982-2.162-63.059,6.99-84.851,5.22-12.431,14.432-18.844,23.964-26.953ZM824.423,507.283c43.753-1.213,70.552,19.663,97.854,35.937L974.2,569.175c31.831,19.091,63.251,40.412,92.861,61.891,18.65,13.532,55.57,32.178,44.93,72.873-9.08,34.764-43.54,47.886-70.89,64.887-30.71,19.085-61.489,42.263-93.861,58.9L910.3,843.7c-20.751,12.285-44.089,25.356-70.894,30.946-43.68,9.109-44.937-49.447-44.933-87.847q0.5-84.843,1-169.7C795.461,564.654,792.424,529.1,824.423,507.283ZM478.94,722.906c42.4-1.131,62.9,16.052,89.865,29.948,54.379,28.016,103.312,60.24,153.77,91.839,17.379,10.883,63.476,34.455,52.921,66.883-8.863,27.231-43.034,40.838-64.9,55.9-41.659,28.7-86.13,51.151-130.8,77.861-24.268,14.51-47.469,29.02-80.879,34.94-34.8,6.17-44.819-25.62-49.925-50.91V992.435q-0.5-81.849-1-163.714c0-24.736-3.523-57.232,3.994-75.867C457.991,737.953,467.534,732.269,478.94,722.906Z"/>
</svg>
